<?xml version="1.0" encoding="UTF-8"?>
<svg width="470px" height="512px" viewBox="0 0 470 512" version="1.1" xmlns="http://www.w3.org/2000/svg" xmlns:xlink="http://www.w3.org/1999/xlink">
    <title>article</title>
    <g id="Page-1" stroke="none" stroke-width="1" fill="none" fill-rule="evenodd">
        <g id="article" fill="#00FFFF" fill-rule="nonzero">
            <path d="M0.976,0 L0.976,430.114 L15.976,430.114 L15.976,15 L306.561,15 L306.561,75.35 L366.912,75.35 L366.912,497.001 L15.976,497.001 L15.976,445.115 L0.976,445.115 L0.976,512.001 L381.912,512.001 L381.912,64.743 L317.168,0 L0.976,0 Z M321.561,25.606 L356.306,60.35 L321.561,60.35 L321.561,25.606 Z" id="Shape"></path>
            <path d="M469.025,105.693 L454.123,89.035 L454.123,54.4 L409.124,54.4 L409.124,89.035 L394.222,105.693 L401.996,397.376 L409.125,397.376 L409.125,421.646 L431.625,466.645 L454.124,421.646 L454.124,397.376 L461.253,397.376 L469.025,105.693 Z M416.601,382.376 L413.743,275.126 L449.505,275.126 L446.647,382.376 L416.601,382.376 Z M413.343,260.125 L409.375,111.251 L419.978,99.399 L443.27,99.399 L453.873,111.251 L449.905,260.125 L413.343,260.125 Z M424.124,69.4 L439.123,69.4 L439.123,84.399 L424.124,84.399 L424.124,69.4 Z M439.123,418.104 L431.624,433.103 L424.124,418.104 L424.124,397.375 L439.123,397.375 L439.123,418.104 Z" id="Shape"></path>
            <polygon id="Path" points="51.306 325.033 66.306 325.033 66.306 340.033 51.306 340.033"></polygon>
            <polygon id="Path" points="81.305 325.033 188.273 325.033 188.273 340.033 81.305 340.033"></polygon>
            <polygon id="Path" points="240.913 248.5 331.58 248.5 331.58 263.5 240.913 263.5"></polygon>
            <polygon id="Path" points="51.306 248.5 225.912 248.5 225.912 263.5 51.306 263.5"></polygon>
            <polygon id="Path" points="51.306 286.767 106.682 286.767 106.682 301.767 51.306 301.767"></polygon>
            <polygon id="Path" points="121.682 286.767 331.58 286.767 331.58 301.767 121.682 301.767"></polygon>
            <polygon id="Path" points="51.306 210.233 106.682 210.233 106.682 225.233 51.306 225.233"></polygon>
            <polygon id="Path" points="121.682 210.233 331.58 210.233 331.58 225.233 121.682 225.233"></polygon>
            <polygon id="Path" points="240.913 133.7 331.58 133.7 331.58 148.7 240.913 148.7"></polygon>
            <polygon id="Path" points="51.306 133.7 225.912 133.7 225.912 148.7 51.306 148.7"></polygon>
            <polygon id="Path" points="225.912 171.967 121.682 171.967 106.682 171.967 51.306 171.967 51.306 186.967 106.682 186.967 121.682 186.967 225.912 186.967 240.913 186.967 331.58 186.967 331.58 171.967 240.913 171.967"></polygon>
            <polygon id="Path" points="81.305 363.3 188.273 363.3 188.273 378.3 81.305 378.3"></polygon>
            <polygon id="Path" points="51.306 363.3 66.306 363.3 66.306 378.3 51.306 378.3"></polygon>
            <polygon id="Path" points="254.613 95.434 331.58 95.434 331.58 110.434 254.613 110.434"></polygon>
            <polygon id="Path" points="194.613 95.434 209.614 95.434 209.614 110.434 194.613 110.434"></polygon>
            <polygon id="Path" points="224.613 95.434 239.613 95.434 239.613 110.434 224.613 110.434"></polygon>
            <polygon id="Path" points="424.124 121.899 439.124 121.899 439.124 187.127 424.124 187.127"></polygon>
            <polygon id="Path" points="424.124 202.127 439.124 202.127 439.124 217.127 424.124 217.127"></polygon>
            <polygon id="Path" points="75.976 30 90.976 30 90.976 45 75.976 45"></polygon>
            <polygon id="Path" points="30.975 82.5 45.975 82.5 45.975 45 60.975 45 60.975 30 30.975 30"></polygon>
            <polygon id="Path" points="105.976 30 120.976 30 120.976 45 105.976 45"></polygon>
            <polygon id="Path" points="269.412 467.001 284.412 467.001 284.412 482.001 269.412 482.001"></polygon>
            <polygon id="Path" points="351.912 452.001 336.912 452.001 336.912 467.001 299.412 467.001 299.412 482.001 351.912 482.001"></polygon>
            <path d="M331.58,363.3 L241.58,363.3 L241.58,415.8 L331.58,415.8 L331.58,363.3 Z M316.58,400.8 L256.58,400.8 L256.58,378.3 L316.58,378.3 L316.58,400.8 Z" id="Shape"></path>
        </g>
    </g>
</svg>