<?xml version="1.0" encoding="UTF-8"?>
<svg width="110px" height="95px" viewBox="0 0 110 95" version="1.1" xmlns="http://www.w3.org/2000/svg" xmlns:xlink="http://www.w3.org/1999/xlink">
    <title>Slice</title>
    <g id="Page-1" stroke="none" stroke-width="1" fill="none" fill-rule="evenodd">
        <g id="github" fill="#00FFFF" fill-rule="nonzero">
            <path d="M55,0 C24.6125,0 0,21.5785579 0,48.1933175 C0,69.4907477 15.7575,87.5511934 37.60625,93.9167275 C40.35625,94.3705479 41.3645833,92.8805711 41.3645833,91.5994321 C41.3645833,90.4548408 41.31875,87.4226779 41.2958333,83.4065681 C25.9966667,86.3142316 22.77,76.9406314 22.77,76.9406314 C20.2675,71.3783193 16.65125,69.8923587 16.65125,69.8923587 C11.6691667,66.904373 17.03625,66.9646147 17.03625,66.9646147 C22.5591667,67.3019679 25.4604167,71.9285264 25.4604167,71.9285264 C30.3645833,79.2980878 38.335,77.1695496 41.4791667,75.9366039 C41.9741667,72.8201027 43.3904167,70.6955806 44.9625,69.4907477 C32.7479167,68.2859148 19.91,64.1412895 19.91,45.6752167 C19.91,40.4141128 22.04125,36.1168753 25.5704167,32.7433431 C24.9516667,31.5264619 23.0954167,26.6268079 26.0516667,19.9881784 C26.0516667,19.9881784 30.6579167,18.6949911 41.1766667,24.9279935 C45.5766667,23.8556922 50.2516667,23.3255657 54.9266667,23.301469 C59.6016667,23.3255657 64.2766667,23.8556922 68.6766667,24.9279935 C79.1266667,18.6949911 83.7329167,19.9881784 83.7329167,19.9881784 C86.6891667,26.6268079 84.8329167,31.5264619 84.2829167,32.7433431 C87.7891667,36.1168753 89.9204167,40.4141128 89.9204167,45.6752167 C89.9204167,64.1894828 77.0641667,68.2658342 64.8266667,69.4505866 C66.7516667,70.8963861 68.5391667,73.8522429 68.5391667,78.3663503 C68.5391667,84.8162227 68.4704167,89.9970043 68.4704167,91.5632871 C68.4704167,92.8283617 69.4329167,94.3344029 72.2516667,93.8524697 C94.25625,87.5311129 110,69.4586188 110,48.1933175 C110,21.5785579 85.37375,0 55,0" id="Path"></path>
        </g>
    </g>
</svg>