<?xml version="1.0" encoding="UTF-8"?>
<svg width="148px" height="130px" viewBox="0 0 148 130" version="1.1" xmlns="http://www.w3.org/2000/svg" xmlns:xlink="http://www.w3.org/1999/xlink">
    <title>linkedin</title>
    <g id="Page-1" stroke="none" stroke-width="1" fill="none" fill-rule="evenodd">
        <g id="linkedin" fill="#00FFFF" fill-rule="nonzero">
            <path d="M126.089833,110.781667 L104.1735,110.781667 L104.1735,80.61625 C104.1735,73.4229167 104.007,64.1658333 92.7528333,64.1658333 C81.326,64.1658333 79.5808333,71.9929167 79.5808333,80.0854167 L79.5808333,110.781667 L57.6645,110.781667 L57.6645,48.75 L78.7175,48.75 L78.7175,57.2054167 L79.0011667,57.2054167 C81.9426667,52.3304167 89.096,47.1845833 99.7828333,47.1845833 C121.989,47.1845833 126.096,60.0220833 126.096,76.7325 L126.096,110.781667 L126.089833,110.781667 Z M32.9115,40.2620833 C25.8568333,40.2620833 20.1896667,35.24625 20.1896667,29.0766667 C20.1896667,22.9125 25.863,17.9020833 32.9115,17.9020833 C39.9415,17.9020833 45.6395,22.9125 45.6395,29.0766667 C45.6395,35.24625 39.9353333,40.2620833 32.9115,40.2620833 Z M43.9005,110.781667 L21.9225,110.781667 L21.9225,48.75 L43.9005,48.75 L43.9005,110.781667 Z M137.054167,0 L10.9211667,0 C4.884,0 0,4.1925 0,9.36541667 L0,120.634583 C0,125.812917 4.884,130 10.9211667,130 L137.035667,130 C143.066667,130 148,125.812917 148,120.634583 L148,9.36541667 C148,4.1925 143.066667,0 137.035667,0 L137.054167,0 Z" id="Shape"></path>
        </g>
    </g>
</svg>