<?xml version="1.0" encoding="UTF-8"?>
<svg width="131px" height="114px" viewBox="0 0 131 114" version="1.1" xmlns="http://www.w3.org/2000/svg" xmlns:xlink="http://www.w3.org/1999/xlink">
    <title>medium</title>
    <g id="Page-1" stroke="none" stroke-width="1" fill="none" fill-rule="evenodd">
        <g id="medium" fill="#00FFFF" fill-rule="nonzero">
            <path d="M0,0 L0,114 L131,114 L131,0 L0,0 Z M108.82825,27.0085 L101.803375,32.87 C101.196016,33.2722689 100.895352,33.9346188 101.022833,34.5895 L101.022833,77.65775 C100.897502,78.3110664 101.19794,78.971091 101.803375,79.3725 L108.6645,85.234 L108.6645,86.52125 L74.1569167,86.52125 L74.1569167,85.23875 L81.2636667,79.23 C81.9623333,78.622 81.9623333,78.44625 81.9623333,77.52 L81.9623333,42.7025 L62.2031667,86.37875 L59.5285833,86.37875 L36.51625,42.7025 L36.51625,71.97675 C36.3244202,73.2067808 36.7934304,74.4452334 37.7880417,75.335 L47.0344583,85.0915 L47.0344583,86.37875 L20.8235417,86.37875 L20.8235417,85.09625 L30.0754167,75.335 C31.0627971,74.4437567 31.5045143,73.1971176 31.2653333,71.97675 L31.2653333,38.12825 C31.3758461,37.1878084 30.9642308,36.2579011 30.1572917,35.625 L21.9370417,27.0085 L21.9370417,25.726 L47.4492917,25.726 L67.17025,63.36025 L84.5059167,25.72125 L108.82825,25.72125 L108.82825,27.0085 L108.82825,27.0085 Z" id="Shape"></path>
        </g>
    </g>
</svg>