<?xml version="1.0" encoding="UTF-8"?>
<svg width="378px" height="456px" viewBox="0 0 378 456" version="1.1" xmlns="http://www.w3.org/2000/svg" xmlns:xlink="http://www.w3.org/1999/xlink">
    <title>light-bulb-svgrepo-com (1)</title>
    <g id="Page-1" stroke="none" stroke-width="1" fill="none" fill-rule="evenodd">
        <g id="light-bulb-svgrepo-com-(1)" fill="#00FFFF" fill-rule="nonzero">
            <path d="M282.218,257.555 C297.734,237.095 305.935,212.674 305.935,186.931 C305.935,155.368 293.556,125.78 271.078,103.617 C248.604,81.459 218.817,69.493 187.25,69.949 C156.659,70.382 127.838,82.657 106.096,104.513 C84.355,126.368 72.229,155.254 71.951,185.848 C71.713,212.076 79.962,236.936 95.806,257.742 C121.527,291.518 135.693,332.891 135.693,374.24 L135.693,419.484 C135.693,439.553 152.02,455.88 172.089,455.88 L205.943,455.88 C226.012,455.88 242.339,439.552 242.339,419.484 L242.339,374.243 C242.34,332.437 256.03,292.086 282.218,257.555 L282.218,257.555 Z M107.74,248.655 C93.932,230.523 86.743,208.852 86.95,185.985 C87.449,131.05 132.538,85.725 187.462,84.948 C215.015,84.578 240.955,94.983 260.546,114.3 C280.143,133.621 290.935,159.416 290.935,186.932 C290.935,209.374 283.788,230.661 270.266,248.492 C242.673,284.877 227.816,327.325 227.208,371.422 L150.672,371.422 C150.045,327.753 134.855,284.261 107.74,248.655 L107.74,248.655 Z M150.693,414.401 L150.693,408.329 L227.34,417.11 L227.34,419.484 C227.34,420.734 227.21,421.952 227.004,423.143 L150.693,414.401 Z M150.693,393.231 L150.693,386.422 L227.34,386.422 L227.34,402.012 L150.693,393.231 L150.693,393.231 Z M172.089,440.881 C164.032,440.881 157.007,436.401 153.358,429.804 L217.925,437.201 C214.504,439.522 210.38,440.88 205.944,440.88 L172.089,440.88 L172.089,440.881 Z" id="Shape"></path>
            <path d="M114.776,198.213 C114.191,194.288 113.912,190.256 113.949,186.23 C113.987,182.088 110.66,178.7 106.518,178.662 C102.404,178.626 98.988,181.951 98.95,186.093 C98.906,190.903 99.239,195.725 99.94,200.426 C100.495,204.148 103.695,206.821 107.349,206.821 C107.717,206.821 108.09,206.794 108.465,206.738 C112.561,206.126 115.387,202.31 114.776,198.213 Z" id="Path"></path>
            <path d="M158.913,312.135 C159.689,312.135 160.479,312.013 161.257,311.758 C165.192,310.464 167.333,306.225 166.039,302.291 C157.727,277.014 145.339,253.464 129.219,232.297 C126.555,228.798 124.194,225.071 122.203,221.218 C120.301,217.538 115.776,216.098 112.096,218 C108.417,219.902 106.976,224.427 108.878,228.107 C111.268,232.729 114.096,237.196 117.286,241.385 C132.392,261.221 144.001,283.289 151.79,306.976 C152.828,310.133 155.761,312.135 158.913,312.135 Z" id="Path"></path>
            <path d="M267.746,212.613 C263.942,210.974 259.529,212.73 257.891,216.534 C255.515,222.052 252.44,227.315 248.752,232.177 C246.249,235.477 246.896,240.182 250.196,242.685 C251.551,243.713 253.143,244.209 254.722,244.209 C256.989,244.209 259.229,243.186 260.704,241.24 C265.123,235.413 268.811,229.097 271.667,222.468 C273.306,218.664 271.551,214.251 267.746,212.613 L267.746,212.613 Z" id="Path"></path>
            <path d="M188.941,111.938 C230.293,111.938 263.935,145.581 263.935,186.933 C263.935,189.284 263.827,191.653 263.614,193.974 C263.236,198.099 266.272,201.749 270.397,202.128 C270.63,202.149 270.861,202.16 271.091,202.16 C274.924,202.16 278.194,199.237 278.551,195.345 C278.805,192.57 278.935,189.74 278.935,186.933 C278.935,137.31 238.564,96.938 188.941,96.938 C184.799,96.938 181.441,100.296 181.441,104.438 C181.441,108.58 184.799,111.938 188.941,111.938 Z" id="Path"></path>
            <path d="M188.941,57 C193.083,57 196.441,53.642 196.441,49.5 L196.441,7.5 C196.441,3.358 193.083,0 188.941,0 C184.799,0 181.441,3.358 181.441,7.5 L181.441,49.5 C181.441,53.642 184.799,57 188.941,57 Z" id="Path"></path>
            <path d="M113.065,71.82 C114.455,74.227 116.975,75.572 119.567,75.572 C120.839,75.572 122.129,75.248 123.31,74.566 C126.897,72.495 128.127,67.908 126.056,64.321 L105.066,27.961 C102.994,24.373 98.408,23.144 94.821,25.215 C91.234,27.286 90.004,31.873 92.075,35.46 L113.065,71.82 Z" id="Path"></path>
            <path d="M349.22,272.115 L312.86,251.125 C309.272,249.053 304.685,250.283 302.615,253.871 C300.544,257.458 301.773,262.045 305.361,264.116 L341.721,285.106 C342.902,285.788 344.191,286.112 345.464,286.112 C348.056,286.112 350.577,284.766 351.966,282.36 C354.037,278.773 352.807,274.186 349.22,272.115 L349.22,272.115 Z" id="Path"></path>
            <path d="M28.661,104.366 L65.021,125.356 C66.202,126.038 67.491,126.362 68.764,126.362 C71.356,126.362 73.877,125.016 75.266,122.61 C77.337,119.023 76.108,114.436 72.52,112.365 L36.16,91.375 C32.573,89.303 27.986,90.533 25.915,94.121 C23.844,97.708 25.073,102.294 28.661,104.366 L28.661,104.366 Z" id="Path"></path>
            <path d="M369.68,180.74 L327.68,180.74 C323.538,180.74 320.18,184.098 320.18,188.24 C320.18,192.382 323.538,195.74 327.68,195.74 L369.68,195.74 C373.822,195.74 377.18,192.382 377.18,188.24 C377.18,184.098 373.823,180.74 369.68,180.74 Z" id="Path"></path>
            <path d="M57.7,188.24 C57.7,184.098 54.342,180.74 50.2,180.74 L8.2,180.74 C4.058,180.74 0.7,184.098 0.7,188.24 C0.7,192.382 4.058,195.74 8.2,195.74 L50.2,195.74 C54.343,195.74 57.7,192.382 57.7,188.24 Z" id="Path"></path>
            <path d="M309.117,126.362 C310.389,126.362 311.679,126.038 312.86,125.356 L349.22,104.366 C352.807,102.295 354.037,97.708 351.966,94.121 C349.895,90.534 345.307,89.304 341.721,91.375 L305.361,112.365 C301.774,114.436 300.544,119.023 302.615,122.61 C304.004,125.016 306.526,126.362 309.117,126.362 Z" id="Path"></path>
            <path d="M65.021,251.125 L28.661,272.115 C25.074,274.186 23.844,278.773 25.915,282.36 C27.304,284.766 29.825,286.112 32.417,286.112 C33.689,286.112 34.979,285.788 36.16,285.106 L72.52,264.116 C76.107,262.045 77.337,257.458 75.266,253.871 C73.196,250.283 68.606,249.054 65.021,251.125 L65.021,251.125 Z" id="Path"></path>
            <path d="M254.571,74.566 C255.752,75.248 257.041,75.572 258.314,75.572 C260.906,75.572 263.427,74.226 264.816,71.82 L285.806,35.46 C287.877,31.873 286.647,27.286 283.06,25.215 C279.474,23.144 274.886,24.373 272.815,27.961 L251.825,64.321 C249.754,67.908 250.984,72.495 254.571,74.566 L254.571,74.566 Z" id="Path"></path>
        </g>
    </g>
</svg>